Patient4_TMGait_0pt3_01_left_11_EMG.mot
version=1
nRows=16
nColumns=33
inDegrees=no
endheader
time	1LAddLong	2LGlutMax	3LGlutMed	4LIliopsoas	5LSemiMemb	6LBicFemLong	7LRecFem	8LVastMed	9LVastLat	10LGasMed	11LTibAnt	12lTibPost	13LPeroneusLong	14LSol	15LExtDigLong	16LFlexDigLong	17RAddLong	18RGlutMax	19RGlutMed	20RIliopsoas	21RSemiMemb	22RBicFemLong	23RRecFem	24RVastMed	25RVastLat	26RGasMed	27RTibAnt	28RTibPost	29RPeroneusLong	30RSol	31RExtDigLong	32RFlexDigLong
20.25	0.009003	0.16205	-0.013275	-0.015869	-0.016022	-0.032043	0.010529	-0.012054	-0.014954	0.019684	0.23468	0.000153	-0.042877	-0.039673	0.77408	0.004578	0.007019	0.058594	0.15198	0.043945	0.040436	0.10925	-0.051727	0.00351	-0.009003	-0.002136	-0.21576	-0.008087	0.019226	0.21072	-0.001373	-0.011902
20.251	0.007629	0.14358	-0.028992	-0.006866	-0.007629	-0.008087	-0.019379	0.016937	-0.026398	-0.007019	-0.047455	0.003052	0.016632	0.048828	-0.36301	0.007782	0.027618	0.076752	0.097046	0.018616	-0.026245	0.043945	0.01236	-0.0737	-0.0177	-0.002747	0.2301	-0.005035	-0.044708	0.14465	-0.000916	-0.010376
20.252	-0.002136	0.14252	0.02243	-0.011292	-0.010223	-0.048676	-0.007782	0.041351	-0.015717	-0.009918	-0.054169	-0.002747	0.002899	-0.00885	-0.31647	0.001831	0.027771	0.10742	0.065765	0.032043	-0.082245	0.04364	0.013733	-0.10574	0.002594	-0.010681	0.44937	-0.000153	-0.11063	0.11368	0.002747	-0.01358
20.253	0.00351	0.12589	0.024414	-0.019073	-0.006714	-0.06073	-0.010223	0.00946	-0.023804	-0.015564	0.1091	0.000458	0.006104	0.009308	-0.14801	-0.010529	0.034485	0.1178	-0.072632	0.042267	-0.066376	0.065765	0.009613	-0.085602	0.012207	-0.01709	0.51483	-0.001373	-0.1149	0.12833	-0.002136	-0.011292
20.254	0.006104	0.11749	0.061188	-0.024261	-0.006561	-0.042725	-0.008545	0.012817	-0.014191	-0.016479	0.004272	-0.006104	0.036163	0.047913	-0.42694	-0.011292	0.028381	0.17914	-0.064545	-0.014496	-0.020752	-0.036316	0.056763	-0.14236	0.05722	-0.018616	0.36697	-0.009003	-0.11932	0.056763	-0.002747	0.00061
20.255	0.007172	0.073395	-0.019379	-0.003052	-0.00412	-0.034485	-0.014496	0.007172	-0.008392	0.01236	-0.023041	0.001221	0.003662	-0.10651	-0.5455	-0.008392	0.042419	0.12695	0.12131	-0.016022	0.053864	-0.094604	0.096588	-0.26474	0.080414	-0.019226	-0.078583	-0.016022	-0.059662	0.023346	-0.003052	-0.00061
20.256	0.016022	0.066681	0.004425	0.002594	-0.011139	-0.037537	0.002747	0.018616	-0.010223	0.027313	0.12482	-0.007172	-0.085602	-0.12817	-0.20859	-0.004578	0.030365	0.090942	0.087585	-0.01297	0.054474	-0.075989	0.00351	0.43732	0.49698	-0.015564	-0.44937	-0.015259	0.086823	-0.000763	-0.005341	-0.001831
20.257	0.010223	0.062408	-0.07431	0.021362	-0.006256	-0.003815	0.002289	0.014954	-0.025635	0.032959	0.052185	-0.002594	-0.079498	-0.070648	0.003967	0.00351	0.018616	0.080719	0.058441	0.037384	0.036621	-0.004272	-0.09613	0.69076	0.98816	-0.010223	-0.072632	-0.007172	0.072937	-0.025787	-0.004272	-0.003967
20.258	0.002747	0.024261	-0.13031	-0.002136	-0.004272	-0.026093	-0.003815	0.017242	-0.033417	0.010834	-0.10147	0.000153	0.029144	0.014496	0.38559	0.001221	0.007782	0.074768	0.35019	0.072937	0.0354	0.04364	-0.14603	0.39383	0.91705	-0.015564	0.031281	0.032959	-0.051727	-0.16724	-0.003204	-0.010681
20.259	0.004883	0.053101	-0.047302	-0.019379	-0.006256	-0.031281	0.008087	0.016022	-0.029449	-0.016479	-0.1059	-0.003967	0.13809	0.052032	-0.31921	0.005798	-0.011139	0.095978	0.68253	0.02594	0.016632	0.11383	-0.18463	-0.083618	0.80734	-0.006409	-0.35095	0.010529	-0.029144	-0.25299	0.001068	-0.010986
20.26	0.008545	0.062561	-0.025177	-0.022278	-0.014343	-0.023193	-0.018311	0.018768	-0.032654	0.003815	0.046539	-0.007477	0.075378	-0.031281	-0.3952	0.005646	-0.021667	0.10269	1.0823	-0.065308	0.032959	0.14252	-0.28976	-0.1387	0.77057	0.002289	-0.23636	-0.00473	-0.001221	-0.24612	-0.00351	-0.010223
20.261	0.000153	0.055389	-0.000153	-0.006714	-0.012512	-0.048065	-0.007782	0.00824	-0.029297	0.002747	0.09552	-0.006256	0.007782	-0.036011	-0.20493	-0.000763	0.021362	0.15228	1.4616	-0.15518	0.025787	0.32135	-0.457	-0.15656	0.22644	0.004883	0.066681	-0.011139	0.010834	-0.12741	-0.006866	-0.007477
20.262	0.015564	0.032806	0.000305	0.014343	-0.006714	-0.068512	-0.017853	0.016174	-0.026245	0.010529	0.075989	-0.004425	0.003204	-0.032959	-0.038452	-0.001373	0.032043	0.14725	1.0284	-0.11307	0.014801	0.4509	-0.34637	-0.12131	-0.75043	-0.002289	0.28503	-0.003204	0.035095	-0.014801	-0.002136	-0.003052
20.263	0.005646	0.022888	-0.040741	0.026703	-0.010223	-0.072784	-0.029297	0.00885	-0.018616	0.00946	0.076447	-0.002441	-0.021667	-0.018768	0.1683	-0.007629	0.020294	0.089874	-0.5957	-0.025482	0.031433	0.17914	-0.13199	0.18692	-1.2584	-0.00946	0.23041	-0.00412	-0.033417	0.018768	-0.001373	-0.010986
20.264	0.009308	0.020447	-0.090942	0.016479	-0.006409	-0.080719	-0.02121	0.015411	0.002441	0.003662	0.089722	0.003815	0.002136	-0.00885	0.18463	0.005341	-0.003052	0.12283	-0.56961	0.023804	0.027161	0.13916	-0.24597	0.086212	-1.0034	-0.011749	-0.099487	-0.00412	-0.021057	0.015411	-0.002441	-0.009003
20.265	0.01358	0.018463	-0.084686	0.005341	-0.002899	-0.082245	-0.044861	0.011597	-0.001221	0.001526	0.083008	0.001984	0.064697	-0.038757	0.11261	-0.001068	0.018921	0.10941	-0.054779	0.084534	-0.083313	0.11078	-0.085449	-0.13229	-0.78781	-0.014343	-0.10727	-0.002594	-0.002441	-0.026093	0.003357	-0.015717
